<svg xmlns="http://www.w3.org/2000/svg" width="76" height="76" viewBox="0 0 76 76">
  <g id="f361b705-3d09-420b-92b7-9bb8f3d0d7ee" data-name="Layer 2">
    <g id="b65c3a5c-dee5-4c60-a441-aebf690f5fe2" data-name="Layer 3">
      <path d="M38,0A38,38,0,1,0,76,38,38,38,0,0,0,38,0Zm0,8A30,30,0,0,1,63.27,21.86H12.73A30,30,0,0,1,38,8ZM8,38a29.52,29.52,0,0,1,.87-7.14h24.4V67.62A30,30,0,0,1,8,38ZM42.27,67.69V30.86H67.13A29.52,29.52,0,0,1,68,38,30,30,0,0,1,42.27,67.69Z" style="fill: #fff"/>
    </g>
  </g>
</svg>
