<svg xmlns="http://www.w3.org/2000/svg" width="173" height="173" viewBox="0 0 173 173">
  <g id="aa1461b8-8247-4a98-a1c1-9ad40a29bc90" data-name="Layer 2">
    <g id="b4d9baaf-ca7c-4bc4-ba45-08dc397fa77e" data-name="Layer 3">
      <g>
        <path d="M145.54,53.51H91.47v102a68.12,68.12,0,0,0,54.07-102Zm-13.17,57-2.55-6.24H117.07l-2.49,6.24H103.24l15.31-36.23h10l15.32,36.23Z" style="fill: #fff"/>
        <polygon points="120.34 95.69 126.61 95.69 123.49 87.74 120.34 95.69" style="fill: #fff"/>
        <path d="M86.5,19.37a68.08,68.08,0,0,0-52,24.14h104A68,68,0,0,0,86.5,19.37Z" style="fill: #fff"/>
        <path d="M18.31,87.56a68.27,68.27,0,0,0,62.16,67.91v-102h-53A67.8,67.8,0,0,0,18.31,87.56Zm30,9.68c-7.16-1.64-13.58-3.74-13.58-11.5,0-7.1,5.64-11.8,14.05-11.8,5.9,0,10.71,1.56,14.69,4.76l.39.31-5.43,7.67-.43-.3A16.93,16.93,0,0,0,48.53,83c-1.83,0-3,.66-3,1.72s.55,1.82,5.62,3c7,1.52,13.43,4,13.43,11.39s-5.75,12-14.65,12a24.86,24.86,0,0,1-16.71-5.93l-.38-.34,6-7.22.4.32a17.39,17.39,0,0,0,11,4.07c1.3,0,3.46-.24,3.46-1.86C53.78,99,52.94,98.31,48.31,97.24Z" style="fill: #fff"/>
        <path d="M86.5,0A86.5,86.5,0,1,0,173,86.5,86.59,86.59,0,0,0,86.5,0Zm5,159c-1.65.11-3.3.19-5,.19-2,0-4-.11-6-.27A72.64,72.64,0,0,1,21.74,53.51a74.61,74.61,0,0,1,6.17-10A72.66,72.66,0,1,1,91.47,159Z" style="fill: #fff"/>
      </g>
    </g>
  </g>
</svg>
