<svg xmlns="http://www.w3.org/2000/svg" width="76" height="76" viewBox="0 0 76 76">
  <g id="bf4bb66e-fe2e-4961-b31e-8ac56bfab0bd" data-name="Layer 2">
    <g id="ee620b89-3c71-4ae4-9000-4fcef24c90da" data-name="Layer 3">
      <path d="M38,0A38,38,0,1,0,76,38,38,38,0,0,0,38,0Zm0,8A30,30,0,0,1,63.27,21.86H12.73A30,30,0,0,1,38,8ZM8,38a29.52,29.52,0,0,1,.87-7.14h24.4V67.62A30,30,0,0,1,8,38ZM42.27,67.69V30.86H67.13A29.52,29.52,0,0,1,68,38,30,30,0,0,1,42.27,67.69Z" style="fill: #40a14c"/>
    </g>
  </g>
</svg>
