<svg xmlns="http://www.w3.org/2000/svg" width="326" height="326" viewBox="0 0 326 326">
  <g id="ad32c300-cb3f-4141-b520-63935afc4dcb" data-name="Layer 2">
    <g id="a26f25d7-e3ee-4dd0-810d-a9cbc2d68594" data-name="Layer 3">
      <g>
        <path d="M173,293.11C239.2,288,291.5,232.49,291.5,165a127.69,127.69,0,0,0-15.16-60.5H173ZM223.41,140h18.9l28.86,68.26H249.44l-4.8-11.75h-24l-4.7,11.75H194.55Z" style="fill: #333"/>
        <polygon points="232.72 165.34 226.77 180.32 238.59 180.32 232.72 165.34" style="fill: #333"/>
        <path d="M163,36.5a128.28,128.28,0,0,0-99.27,47H262.27A128.28,128.28,0,0,0,163,36.5Z" style="fill: #333"/>
        <path d="M151,292.94V104.5H49.66A127.69,127.69,0,0,0,34.5,165C34.5,231.81,85.75,286.86,151,292.94ZM91,183.24c-13.48-3.08-25.58-7.05-25.58-21.66v-.19c0-13.19,10.63-22,26.47-22,11.12,0,20.18,2.93,27.7,9l.73.59-10.24,14.46-.81-.57c-5.78-4.07-12.12-6.31-17.85-6.31-3.44,0-5.58,1.24-5.58,3.23v.19c0,2.05,1,3.25,10.59,5.42,22.25,4.83,25.32,13.17,25.32,21.46V187c0,13.63-10.84,22.43-27.61,22.43-12.27,0-23.46-4-31.49-11.16l-.72-.64L73.35,184l.77.61c6.39,5.1,13.36,7.68,20.71,7.68,2.44,0,6.52-.46,6.52-3.51v-.19C101.35,186.61,99.76,185.26,91,183.24Z" style="fill: #333"/>
        <polygon points="246.11 288.68 244.1 287.29 244.56 289.69 246.11 288.68" style="fill: #333"/>
        <path d="M67.11,275l-1.44-1.23-1.51,1.75,1.47,1.26c.67.58,1.34.6,1.8.06l.21.14-.19-.17C68.07,276.08,67.61,275.42,67.11,275Z" style="fill: #333"/>
        <path d="M267.3,52.6l0,0a.65.65,0,0,0,.19-.47,1.39,1.39,0,0,0-.53-.88L265.6,50l-1.06,1.15,1.27,1.19C266.77,53.17,267.17,52.74,267.3,52.6Z" style="fill: #333"/>
        <polygon points="77.48 40.53 75.41 39.22 75.96 41.61 77.48 40.53" style="fill: #333"/>
        <path d="M310.84,150.05a1.12,1.12,0,0,0,.85-.45,1.66,1.66,0,0,0,.24-1.12,1.62,1.62,0,0,0-.45-1,1.15,1.15,0,0,0-.76-.28h-.15a1.16,1.16,0,0,0-.86.46,1.62,1.62,0,0,0-.25,1.13h0a1.5,1.5,0,0,0,.48,1A1.16,1.16,0,0,0,310.84,150.05Z" style="fill: #333"/>
        <polygon points="216.71 301.31 216.67 303.77 218.4 303.09 216.71 301.31" style="fill: #333"/>
        <path d="M272.62,265.62l-.17.18a2.55,2.55,0,0,0-3.82.06l-1,1,3.89,3.76,1-1a2.54,2.54,0,0,0,0-3.8Z" style="fill: #333"/>
        <path d="M263.55,55.57c.93.87,1.35.42,1.49.27l.2.15-.19-.17c.14-.15.56-.6-.43-1.51L263,52.79,261.85,54Z" style="fill: #333"/>
        <path d="M63.37,48.36l0,0a.6.6,0,0,0-.55-.23,1.45,1.45,0,0,0-.82.44l-1.41,1.24,1,1.18,1.3-1.16C63.89,49,63.5,48.51,63.37,48.36Z" style="fill: #333"/>
        <path d="M16,189.49a1,1,0,0,0,.86.2h0a1,1,0,0,0,.78-.5,1.73,1.73,0,0,0,.11-1.12l-.32-1.86-2.28.39.32,1.9A1.61,1.61,0,0,0,16,189.49Z" style="fill: #333"/>
        <path d="M163,0C73.12,0,0,73.12,0,163S73.12,326,163,326s163-73.12,163-163S252.88,0,163,0ZM318.29,167.07h-2.08l-2.75-3.35c-1-1.18-1.45-1.6-2.16-1.6a1,1,0,0,0-1,1.06c0,.61.31,1.07,1.22,1.81l.2.16L310.17,167l-.19-.14a4.34,4.34,0,0,1-2.13-3.86c0-2.2,1.29-3.62,3.29-3.62,1.8,0,2.71,1,4,2.67l.79,1v-3.79h2.37ZM308,146a5.21,5.21,0,0,1,3.75-1.61,6.59,6.59,0,0,1,4.12.75,4.1,4.1,0,0,1,1.91,3.22,5,5,0,0,1-.88,3.48l-.13.19-2.18-1.21.15-.22a2.91,2.91,0,0,0,.58-2.06A1.67,1.67,0,0,0,313.7,147a3.46,3.46,0,0,1,.54,1.6c.23,2.3-.94,3.86-3,4.07h-.39a3.53,3.53,0,0,1-2.36-.87,4.16,4.16,0,0,1-1.32-2.75A3.8,3.8,0,0,1,308,146Zm-11.06-38,2.54-1,1,2.57-2.54,1ZM51.49,83.5A136.93,136.93,0,1,1,173,299.63c-3.3.24-6.64.37-10,.37-4,0-8-.19-12-.53a136.87,136.87,0,0,1-99.51-216Zm247.28,7.43A5.76,5.76,0,0,1,302.33,98l-.08.22-2.5-.63.07-.24a3.4,3.4,0,0,0-.13-2.56,2.84,2.84,0,0,0-5.05,2.56A3.31,3.31,0,0,0,296.69,99l.23.09-.77,2.31-.23-.07a5.29,5.29,0,0,1-3.53-2.92,5.17,5.17,0,0,1,2.33-7.1A5.33,5.33,0,0,1,298.77,90.93Zm-7.11-14.51L289.33,83,294,80l1.44,2.2-6.85,4.47-1.77,1.16-1.2-1.85.86-2.43L288,79.13l-4.8,3.14-1.44-2.2,8.62-5.63ZM283.8,65.77l1.65,2.09-8.08,6.39-1.65-2.08Zm-15-16.07c1.55,1.44,1.81,3.17.66,4.41a2.46,2.46,0,0,1-2.16.85,2.51,2.51,0,0,1-.53,2.85,2.65,2.65,0,0,1-2,.92l-.37,0a4.86,4.86,0,0,1-2.55-1.39L258.32,54l7-7.56Zm-20.51-9.19,3.5-4.7L254,37.4l-3.46,4.65c-.59.79-1,1.94.2,2.86,1,.72,1.93.53,2.75-.58l3.5-4.71,2.13,1.59-3.45,4.64A4.5,4.5,0,0,1,252,48a4.83,4.83,0,0,1-2.85-1.06C246.9,45.18,246.59,42.86,248.33,40.51Zm-8.85-12.45,2.28,1.36-4,6.73,4.19,2.5-1.26,2.12L234.2,36.9Zm-17.54-3a5.23,5.23,0,0,1,7.12-2.59,5.36,5.36,0,0,1,3,3.14l.08.22-2.36,1.06-.1-.24A3.33,3.33,0,0,0,228,24.75a2.65,2.65,0,0,0-3.53,1.45,2.67,2.67,0,0,0,1.15,3.68,3.32,3.32,0,0,0,2.64,0l.22-.08.83,2.29-.23.09a5.27,5.27,0,0,1-4.58-.11,5.2,5.2,0,0,1-2.55-7Zm-20.33-5.75c-1.69-.95-3-1.91-2.47-4a3,3,0,0,1,1.63-2,4,4,0,0,1,2.77-.16,5.94,5.94,0,0,1,3.32,2.25l.14.19-1.88,1.58L205,17a4.3,4.3,0,0,0-2.08-1.51,1.36,1.36,0,0,0-.82,0,.5.5,0,0,0-.31.34c-.11.42,0,.64,1.58,1.53,1.77,1,2.85,2.07,2.35,3.94A3,3,0,0,1,204,23.36a3.56,3.56,0,0,1-1.48.3,5.36,5.36,0,0,1-1.39-.2,6.46,6.46,0,0,1-3.75-2.7l-.13-.21,2-1.42.14.21a4.29,4.29,0,0,0,2.38,1.81c.26.07,1.13.26,1.29-.35C203.16,20.46,203.1,20.19,201.61,19.34Zm-12-9.12,2.61.47-1.84,10.14-2.62-.48ZM172.27,8.15l2.35.21,3.71,5.89.49-5.52,2.62.23-.91,10.26-2.2-.19-3.85-6.1-.5,5.71-2.62-.23Zm-15.13-.1,4.34,5.44L161.36,8,164,7.89l.23,10.3-2.2,0-4.5-5.64.13,5.73-2.63.06L154.78,8.1Zm-10.27.68.32,2.39L142,11.8l.19,1.48,4.58-.6.32,2.4-4.58.59.2,1.55,5.27-.69.31,2.4-7.89,1L139.05,9.75Zm-15.2,2.33.56,2.42-2.9.68,1.78,7.61-2.58.6-1.79-7.6-2.9.68L123.27,13Zm-30.9,10.66a4,4,0,0,1,2.08-1.82,5.92,5.92,0,0,1,4-.27l.22.06-.5,2.41-.25-.05a4.27,4.27,0,0,0-2.57.08c-.57.23-.84.61-.7.94s.39.52,2.19.25c2-.29,3.53-.12,4.27,1.66s-.11,3.64-2.26,4.54a6.41,6.41,0,0,1-4.62.17l-.23-.08.73-2.36.24.07a4.24,4.24,0,0,0,3,0c.25-.11,1-.5.81-1.07-.14-.33-.35-.51-2.05-.26-1.92.28-3.57.36-4.42-1.66A3,3,0,0,1,100.77,21.72ZM86.33,28.19,92.69,31,90,26.16l2.3-1.27,5,9L95.36,35l-6.6-2.91,2.77,5-2.3,1.27-5-9Zm-12,7.49L84,41.59l-2.29,1.62-2-1.28-3.11,2.2.54,2.32L74.86,48l-2.4-11ZM60.63,46.55A4,4,0,0,1,63,45.43a2.52,2.52,0,0,1,2.07.88,2.46,2.46,0,0,1,.64,2.24,2.51,2.51,0,0,1,2.79.8c1.24,1.4.88,3.19-1,4.82l-3.67,3.26L57,49.73Zm-12.24,12,5.77,5.31,3.31-3.59L59.27,62l-5.1,5.55-7.57-7Zm-9.22,11,10.95,2.65-1.67,2.25-2.3-.6-2.27,3.06,1.23,2-1.64,2.2-5.68-9.73ZM26.41,89.44l2.22,1.12-1.34,2.67,7,3.52-1.19,2.37-7-3.52-1.34,2.66-2.22-1.12Zm-8.28,17.79a5.91,5.91,0,0,1,2.59-3.07l.2-.12,1.38,2-.21.14a4.32,4.32,0,0,0-1.72,1.91c-.22.58-.15,1,.2,1.16s.63.08,1.69-1.41c1.2-1.66,2.36-2.62,4.16-1.92s2.55,2.6,1.71,4.78a6.51,6.51,0,0,1-3.08,3.45l-.22.11-1.2-2.17.21-.12a4.27,4.27,0,0,0,2.06-2.18,1.65,1.65,0,0,0,.13-.91.52.52,0,0,0-.34-.41c-.34-.13-.61-.11-1.61,1.29-1.12,1.58-2.22,2.83-4.26,2C18,111.14,17.35,109.25,18.13,107.23Zm-10.44,49a5.15,5.15,0,0,1,5.53-5,5.53,5.53,0,0,1,3.32,9.57l-.17.16-1.87-1.79.18-.18a3.39,3.39,0,0,0,1.15-2.28A2.66,2.66,0,0,0,13.15,154a2.66,2.66,0,0,0-3,2.46,3.32,3.32,0,0,0,1,2.46l.15.18-1.8,1.63-.17-.17A5.28,5.28,0,0,1,7.69,156.25Zm.43,17.92,3.92-.25-.21-3.47-3.93.25-.16-2.65L18,167.41l.16,2.65-3.87.24.22,3.47,3.87-.24.16,2.65-10.28.64Zm2.13,16.72L13,188.3l-.22-1.3-3.09.53-.45-2.62,10.15-1.73.8,4.66c.41,2.4-.65,4.11-2.77,4.48a3.31,3.31,0,0,1-3.47-1.41L10.78,194ZM12.45,201l10-2.61.68,2.57-.24.06-9.73,2.55Zm7.29,16.63a2.94,2.94,0,0,1-1.52-.43,4.3,4.3,0,0,1-1.71-2.31,6.53,6.53,0,0,1,.1-4.63l.09-.22,2.33.87-.09.23a4.28,4.28,0,0,0-.15,3c.09.25.44,1.08,1,.87.33-.12.53-.32.37-2-.17-1.93-.14-3.59,1.92-4.31a3,3,0,0,1,2.57.2,4,4,0,0,1,1.7,2.19,5.91,5.91,0,0,1,0,4l-.07.21L24,214.59l.06-.24a4.32,4.32,0,0,0,.07-2.58,1.42,1.42,0,0,0-.45-.68.49.49,0,0,0-.45-.07c-.42.15-.54.36-.38,2.18.18,2-.08,3.52-1.9,4.16A3.41,3.41,0,0,1,19.74,217.58Zm2,9.76,7.09-3.29-1.26-2.71,2.25-1,3.64,7.81-2.26,1-1.25-2.7-7.09,3.29Zm10.13,14.32A3.31,3.31,0,0,0,34,243.18l.23.07-.62,2.35-.23,0a5.29,5.29,0,0,1-3.72-2.68,5.22,5.22,0,0,1,1.87-7.24,5.53,5.53,0,0,1,8,6.17l-.06.23L37,241.57l0-.25a3.41,3.41,0,0,0-.3-2.55A2.65,2.65,0,0,0,33,238,2.68,2.68,0,0,0,31.83,241.66Zm9.63,18.08-1.6-2.13L43,255.25l-2.09-2.78-3.14,2.36-1.6-2.12,8.24-6.19,1.6,2.13L42.91,251,45,253.76l3.1-2.33,1.6,2.12Zm11.35,11.14h-.15a4.58,4.58,0,0,1-3.12-1.62c-1.95-2.08-1.84-4.43.3-6.43l4.27-4,1.81,1.94-4.23,4c-.72.68-1.36,1.73-.31,2.85a1.88,1.88,0,0,0,1.31.65,2.27,2.27,0,0,0,1.5-.73l4.28-4,1.82,1.94-4.22,3.95A4.82,4.82,0,0,1,52.81,270.88Zm16.75,7.59A3.28,3.28,0,0,1,66,279.6L65.51,284l-2.37-2,.45-3.75-1-.86-2,2.38-2-1.73,6.71-7.81,3.59,3.08C70.69,274.84,71,276.84,69.56,278.47ZM81.22,287l-.06-.25a3.32,3.32,0,0,0-1.33-2.18,2.48,2.48,0,0,0-2-.39,3,3,0,0,0-1.74,1.22,2.67,2.67,0,0,0,.52,3.83,3.27,3.27,0,0,0,2.59.47l.24,0,.43,2.39-.23.05a6.53,6.53,0,0,1-1.41.17,5.29,5.29,0,0,1-3.09-1,5.17,5.17,0,0,1-1.35-7.35,5.53,5.53,0,0,1,9.88,2.23l0,.23Zm11.7,14.61-2.34-1.27,1.87-3.46-3.06-1.65-1.87,3.46-2.34-1.27,4.91-9.06,2.33,1.27L90.58,293l3.06,1.65,1.84-3.41,2.34,1.27Zm9.71,3.78a2.51,2.51,0,0,1-2.31,1.82,4,4,0,0,1-1.44-.32l-.19-.08.29-1.36.26.09c.7.22,1.16.1,1.41-.36l-.8-.35,1.09-2.51,2.54,1.11Zm25.52,9-2.14-.57-2.76-6.66-1.47,5.55-2.54-.67,2.62-10,2.29.6,2.67,6.44,1.41-5.37,2.54.68Zm16.95-5-5.19-.79-.22,1.48,4.56.69-.36,2.39-4.56-.69-.24,1.54,5.26.79-.36,2.39L136.12,316l1.54-10.18,7.8,1.18Zm17.86,9-2.23-.06-1.88-5.94-2.19,5.84-2.23-.07L151.28,308l-.08-.27,2.84.08.05.19,1.64,5.92,2.13-5.92,0-.11,2.21.06V308l1.83,6.09,2-6,2.78.07Zm20.78-1.47-.32-2,4.07-6.67-4.86.8-.39-2.36,8.39-1.38.32,2L186.88,314l5-.82.38,2.36Zm16.19-3.09-2.69-9.94,7.62-2.07.63,2.34-5.07,1.37.39,1.44,4.46-1.21.63,2.33-4.46,1.21.41,1.5,5.13-1.39.63,2.34Zm21.88-7.15L220.18,305l-3.55,1.38,0,2.37-2.55,1,.35-11.27,2.16-.84,7.88,8.07Zm9.1-4-4.7-9.17,2.36-1.21,3.58,7L236.5,297l1.12,2.19Zm19.28-11.14-1.95-1.36-3.19,2.08.45,2.33-2.3,1.5-2-11.1,1.94-1.26,9.36,6.28Zm13.54-10.31-7-1.65,3.65,4.43-2,1.68-6.55-7.95,1.82-1.5,6.78,1.59-3.52-4.28,2-1.67,6.56,7.95Zm10.54-9.89-2.83,2.93-7.4-7.16,2.83-2.93a5.67,5.67,0,0,1,3.79-1.8,5,5,0,0,1,3.68,1.44A5.13,5.13,0,0,1,274.27,271.32Zm8.13-9-2.12-1.73,1.75-2.14,2.12,1.73Zm12.14-16.71-8.87-5.26,4-6.79,2.08,1.24-2.68,4.51,1.28.76,2.36-4,2.08,1.23-2.36,4,1.34.79,2.72-4.58,2.08,1.24Zm9.35-17a6.45,6.45,0,0,1-3.35,3.18l-.23.09-1-2.26.22-.1a4.29,4.29,0,0,0,2.23-2c.12-.25.46-1.07-.1-1.35-.32-.15-.6-.15-1.71,1.16-1.25,1.48-2.45,2.63-4.41,1.68a3,3,0,0,1-1.66-2,4,4,0,0,1,.36-2.74,5.89,5.89,0,0,1,2.83-2.85l.21-.1,1.21,2.14-.22.12a4.31,4.31,0,0,0-1.88,1.76c-.27.55-.23,1,.1,1.17s.63.13,1.81-1.26c1.33-1.55,2.56-2.42,4.3-1.58S304.91,226.45,303.89,228.55Zm5-12.45-7.36-2.61-1,2.81-2.34-.83,2.88-8.12,2.35.83-1,2.81,7.36,2.61Zm6.56-23.6L308,191.08l.09,1.69-2.3.14-.33-3.2.33-1.73L316,189.92Zm.67-10.63L316,182l-1.9-1.61.19-.19a2.9,2.9,0,0,0,1-1.9,1.67,1.67,0,0,0-1.27-1.77,3.4,3.4,0,0,1,.22,1.67c-.22,2.3-1.68,3.6-3.77,3.39a4.15,4.15,0,0,1-1.86-7.2,5.17,5.17,0,0,1,4-.85c3.44.34,5.41,2.28,5.14,5.06A5,5,0,0,1,316.13,181.87Z" style="fill: #333"/>
        <polygon points="41.27 72.6 42.53 74.7 43.65 73.21 41.27 72.6" style="fill: #333"/>
        <path d="M310.87,176.11c-.77-.06-1.32.44-1.4,1.35a1.23,1.23,0,0,0,1.1,1.53,1.17,1.17,0,0,0,.87-.24,1.83,1.83,0,0,0,.26-2.19A1.15,1.15,0,0,0,310.87,176.11Z" style="fill: #333"/>
        <path d="M66,52.38a1.68,1.68,0,0,0,.59-.81.65.65,0,0,0-.17-.64l.17-.19-.19.17c-.13-.15-.54-.61-1.55.28l-1.67,1.49,1.1,1.24Z" style="fill: #333"/>
      </g>
    </g>
  </g>
</svg>
