<svg xmlns="http://www.w3.org/2000/svg" width="326" height="326" viewBox="0 0 326 326">
  <g id="a38b94d4-b9d5-4eaf-a389-68e3cd39ec8a" data-name="Layer 2">
    <g id="a7bd36e0-c83e-4bfd-a84d-2d0eacb621e9" data-name="Layer 3">
      <g>
        <path d="M173,293.11C239.2,288,291.5,232.49,291.5,165a127.69,127.69,0,0,0-15.16-60.5H173ZM223.41,140h18.9l28.86,68.26H249.44l-4.8-11.75h-24l-4.7,11.75H194.55Z" style="fill: #40a14c"/>
        <polygon points="232.71 165.34 226.77 180.32 238.59 180.32 232.71 165.34" style="fill: #40a14c"/>
        <path d="M163,36.5a128.28,128.28,0,0,0-99.27,47H262.27A128.28,128.28,0,0,0,163,36.5Z" style="fill: #40a14c"/>
        <path d="M151,292.94V104.5H49.66A127.69,127.69,0,0,0,34.5,165C34.5,231.81,85.75,286.86,151,292.94ZM91,183.23c-13.48-3.07-25.59-7-25.59-21.65v-.19c0-13.19,10.64-22,26.48-22,11.12,0,20.18,2.93,27.69,9l.74.59-10.24,14.46-.81-.57c-5.79-4.07-12.12-6.31-17.85-6.31-3.44,0-5.58,1.24-5.58,3.23v.19c0,2.05,1,3.25,10.59,5.42,22.25,4.83,25.31,13.17,25.31,21.46V187c0,13.63-10.83,22.43-27.6,22.43-12.27,0-23.46-4-31.49-11.16l-.72-.64L73.35,184l.77.61c6.39,5.1,13.36,7.68,20.71,7.68,2.44,0,6.52-.46,6.52-3.51v-.19C101.35,186.61,99.76,185.25,91,183.23Z" style="fill: #40a14c"/>
        <polygon points="41.27 72.6 42.53 74.7 43.65 73.21 41.27 72.6" style="fill: #40a14c"/>
        <path d="M310.87,176.11h-.15a1.15,1.15,0,0,0-.79.29,1.58,1.58,0,0,0-.46,1,1.54,1.54,0,0,0,.24,1.1,1.2,1.2,0,0,0,.86.44c.76.07,1.28-.44,1.37-1.33a1.49,1.49,0,0,0-.28-1.14A1.15,1.15,0,0,0,310.87,176.11Z" style="fill: #40a14c"/>
        <path d="M67.74,275.92a1.78,1.78,0,0,0-.63-.93l-1.44-1.23-1.51,1.75,1.47,1.26c.67.57,1.34.59,1.8.06l.21.14-.19-.17A1,1,0,0,0,67.74,275.92Z" style="fill: #40a14c"/>
        <path d="M16,189.46a1,1,0,0,0,.86.2h0a1,1,0,0,0,.78-.5,1.73,1.73,0,0,0,.11-1.12l-.32-1.86-2.28.39.33,1.9A1.61,1.61,0,0,0,16,189.46Z" style="fill: #40a14c"/>
        <path d="M310.84,150.05a1.14,1.14,0,0,0,.85-.45,1.66,1.66,0,0,0,.24-1.12,1.55,1.55,0,0,0-.46-1,1.11,1.11,0,0,0-.9-.27c-.77.07-1.2.68-1.11,1.59a1.52,1.52,0,0,0,.45,1A1.18,1.18,0,0,0,310.84,150.05Z" style="fill: #40a14c"/>
        <path d="M163,0C73.12,0,0,73.12,0,163S73.12,326,163,326s163-73.12,163-163S252.88,0,163,0ZM318.29,167.07h-2.08l-2.75-3.35c-1-1.18-1.45-1.6-2.16-1.6a1,1,0,0,0-1,1.06c0,.62.3,1.06,1.22,1.81l.2.16L310.17,167l-.19-.14a4.34,4.34,0,0,1-2.13-3.86,3.84,3.84,0,0,1,.89-2.63,3.13,3.13,0,0,1,2.4-1h0c1.8,0,2.71,1,4,2.67l.79,1v-3.79h2.37ZM308,146a5.19,5.19,0,0,1,3.75-1.61c3.44-.34,5.75,1.18,6,4h0a5,5,0,0,1-.88,3.48l-.13.19-2.18-1.21.15-.23a2.88,2.88,0,0,0,.58-2.05A1.67,1.67,0,0,0,313.7,147a3.46,3.46,0,0,1,.54,1.6c.23,2.3-.94,3.86-3,4.06a2.55,2.55,0,0,1-.39,0,3.74,3.74,0,0,1-3.68-3.62A3.8,3.8,0,0,1,308,146Zm-11.06-38,2.54-1,1,2.57-2.54,1ZM51.49,83.5A136.94,136.94,0,1,1,173,299.63c-3.3.24-6.64.37-10,.37-4,0-8-.19-12-.53a136.87,136.87,0,0,1-99.51-216ZM301.91,93.67a5.32,5.32,0,0,1,.41,4.32l-.07.22-2.5-.63.06-.25a3.33,3.33,0,0,0-.12-2.55,2.5,2.5,0,0,0-1.57-1.29,2.93,2.93,0,0,0-2.1.24,2.67,2.67,0,0,0-1.38,3.61A3.31,3.31,0,0,0,296.69,99l.23.09-.77,2.31-.23-.07a5.29,5.29,0,0,1-3.53-2.92,5.17,5.17,0,0,1,2.33-7.1A5.23,5.23,0,0,1,301.91,93.67ZM291.68,76.44,289.35,83,294,80l1.44,2.2-6.88,4.49-1.75,1.14L285.59,86l.88-2.46L288,79.16,283.2,82.3l-1.44-2.2,8.63-5.63Zm-7.89-10.67,1.64,2.08-8.06,6.4-1.65-2.09Zm-15-16.07A4,4,0,0,1,270.19,52a2.53,2.53,0,0,1-.69,2.15,2.44,2.44,0,0,1-2.17.85,2.49,2.49,0,0,1-.52,2.85,2.63,2.63,0,0,1-2,.91,4.5,4.5,0,0,1-2.92-1.39h0L258.32,54l7-7.55Zm-20.49-9.17,3.5-4.69L254,37.42l-3.46,4.65a2.38,2.38,0,0,0-.58,1.62,1.71,1.71,0,0,0,.77,1.23,1.79,1.79,0,0,0,1.41.41,2.27,2.27,0,0,0,1.34-1l3.51-4.7,2.13,1.59-3.46,4.63a4.69,4.69,0,0,1-3.08,2.07,4.21,4.21,0,0,1-.5,0,4.73,4.73,0,0,1-2.85-1.08C246.92,45.2,246.61,42.88,248.35,40.53Zm-8.87-12.47,2.28,1.36-4,6.73,4.19,2.5-1.26,2.12L234.2,36.9Zm-17.54-3a5.52,5.52,0,0,1,10.11.55l.08.22-2.36,1.06-.1-.24A3.33,3.33,0,0,0,228,24.75a2.65,2.65,0,0,0-3.53,1.45,2.66,2.66,0,0,0,1.15,3.68,3.29,3.29,0,0,0,2.63,0l.23-.07.82,2.28-.22.09a5.8,5.8,0,0,1-2.19.47,5.58,5.58,0,0,1-2.39-.58,5.2,5.2,0,0,1-2.55-7Zm-20.33-5.75c-1.69-.95-3-1.91-2.47-4a3,3,0,0,1,1.63-2,3.94,3.94,0,0,1,2.77-.15,5.88,5.88,0,0,1,3.32,2.24l.14.19-1.88,1.59L205,17a4.3,4.3,0,0,0-2.08-1.51,1.36,1.36,0,0,0-.82,0,.5.5,0,0,0-.31.34c-.12.42,0,.64,1.58,1.53,1.77,1,2.85,2.08,2.35,3.94a3.12,3.12,0,0,1-3.2,2.38,5.26,5.26,0,0,1-1.38-.19,6.46,6.46,0,0,1-3.75-2.7l-.13-.21,2-1.42.14.21a4.24,4.24,0,0,0,2.38,1.81c.26.07,1.13.26,1.29-.34C203.16,20.46,203.1,20.19,201.61,19.34Zm-12-9.12,2.61.47-1.84,10.14-2.62-.48ZM172.27,8.15l2.35.21,3.71,5.89.49-5.52,2.62.23-.91,10.27-2.2-.2-3.85-6.1-.5,5.72-2.62-.24Zm-15.13-.1,4.34,5.44L161.36,8,164,7.89l.23,10.3-2.2,0-4.5-5.64.13,5.74-2.63.05L154.78,8.1Zm-10.24.67.31,2.4-5.2.68.19,1.47,4.58-.59.31,2.4-4.58.59.2,1.55,5.28-.69.31,2.4-7.89,1L139.08,9.74Zm-15.23,2.34.56,2.42-2.9.68,1.78,7.61-2.58.6-1.79-7.6-2.9.68L123.27,13Zm-30.9,10.66a4,4,0,0,1,2.08-1.82,5.92,5.92,0,0,1,4-.27l.22.06-.5,2.41-.25-.05a4.27,4.27,0,0,0-2.57.08c-.57.24-.84.61-.7.95s.39.51,2.19.24c2-.29,3.53-.12,4.27,1.66s-.11,3.64-2.26,4.54a6.41,6.41,0,0,1-4.62.17l-.23-.08.73-2.36.24.07a4.24,4.24,0,0,0,3,0c.25-.11,1-.49.81-1.07-.14-.33-.35-.51-2.05-.26-1.91.29-3.57.36-4.42-1.66A3,3,0,0,1,100.77,21.72ZM86.33,28.19,92.69,31,90,26.16l2.3-1.27,5,9L95.36,35l-6.6-2.91,2.77,5-2.3,1.27-5-9Zm-12,7.49L84,41.59l-2.29,1.62-2-1.28-3.11,2.21.54,2.31L74.86,48l-2.4-11ZM60.63,46.55A4,4,0,0,1,63,45.43a2.47,2.47,0,0,1,2.07.89,2.45,2.45,0,0,1,.64,2.24,2.48,2.48,0,0,1,2.79.8c1.24,1.39.87,3.19-1,4.81h0l-3.67,3.26L57,49.73Zm-12.24,12,5.77,5.31,3.31-3.59L59.27,62l-5.1,5.55-7.57-7Zm-9.22,11,10.95,2.65-1.67,2.25-2.3-.6-2.27,3.06,1.23,2-1.64,2.2-5.68-9.73ZM26.41,89.44l2.22,1.12-1.34,2.67,7,3.52-1.19,2.37-7-3.52-1.34,2.66-2.22-1.12Zm-8.28,17.79a5.87,5.87,0,0,1,2.59-3.07l.2-.12,1.38,2-.21.14a4.32,4.32,0,0,0-1.72,1.91c-.22.57-.15,1,.2,1.16s.63.08,1.69-1.41c1.2-1.66,2.36-2.62,4.16-1.93s2.55,2.61,1.71,4.79A6.49,6.49,0,0,1,25,114.18l-.21.11-1.2-2.17.21-.12a4.27,4.27,0,0,0,2.06-2.18c.1-.25.37-1.1-.21-1.32-.34-.13-.61-.11-1.61,1.29-1.12,1.58-2.22,2.83-4.26,2C18,111.14,17.35,109.25,18.13,107.23Zm-10.44,49a5.18,5.18,0,0,1,5.53-5,5.23,5.23,0,0,1,5.09,5.61,5.36,5.36,0,0,1-1.77,4l-.18.16-1.87-1.79.18-.18a3.31,3.31,0,0,0,1.15-2.28,2.48,2.48,0,0,0-.72-1.9,3,3,0,0,0-1.95-.83,2.68,2.68,0,0,0-3,2.46,3.31,3.31,0,0,0,1,2.46l.15.18-1.81,1.63-.16-.18A5.23,5.23,0,0,1,7.69,156.25Zm.43,17.92,3.92-.25-.21-3.47-3.93.25-.16-2.65L18,167.41l.16,2.65-3.87.24.22,3.47,3.87-.24.16,2.65-10.28.64Zm2.13,16.69,2.73-2.6L12.76,187l-3.09.53-.44-2.62,10.15-1.73.79,4.66a4.28,4.28,0,0,1-.42,3,3.31,3.31,0,0,1-2.35,1.49,3.28,3.28,0,0,1-3.46-1.41l-3.17,3.06ZM12.45,201l10-2.61.68,2.57-10,2.61Zm7.29,16.63a2.94,2.94,0,0,1-1.52-.43,4.3,4.3,0,0,1-1.71-2.31,6.48,6.48,0,0,1,.1-4.63l.09-.22,2.33.87-.09.23a4.28,4.28,0,0,0-.15,3,1.67,1.67,0,0,0,.5.78.51.51,0,0,0,.53.09c.33-.12.52-.32.37-2-.17-1.93-.14-3.59,1.92-4.31a3,3,0,0,1,2.57.2,4,4,0,0,1,1.7,2.19,5.88,5.88,0,0,1,0,4l-.07.22L24,214.59l.06-.24a4.32,4.32,0,0,0,.07-2.58,1.42,1.42,0,0,0-.45-.68.49.49,0,0,0-.45-.07c-.42.15-.54.36-.38,2.18.17,2-.08,3.52-1.9,4.16A3.41,3.41,0,0,1,19.74,217.58Zm2,9.76,7.09-3.29-1.26-2.71,2.25-1.05,3.64,7.82-2.26,1-1.25-2.7-7.09,3.29Zm10.13,14.32A3.32,3.32,0,0,0,34,243.18l.23.07-.62,2.35-.23,0a5.31,5.31,0,0,1-3.72-2.68,5.32,5.32,0,0,1,9.2-5.35,5.34,5.34,0,0,1,.7,4.28l-.06.23L37,241.57l0-.25a3.41,3.41,0,0,0-.3-2.55A2.65,2.65,0,0,0,33,238a3,3,0,0,0-1.38,1.66A2.5,2.5,0,0,0,31.83,241.66Zm9.6,18.06-1.59-2.13L43,255.24l-2.09-2.79-3.15,2.36-1.59-2.13,8.25-6.17L46,248.64,42.9,251,45,253.74l3.1-2.32,1.59,2.13Zm11.38,11.16h-.15a4.58,4.58,0,0,1-3.12-1.62,4.52,4.52,0,0,1-1.39-3.2,4.67,4.67,0,0,1,1.69-3.23l4.27-4,1.81,1.94-4.23,4c-.72.68-1.36,1.72-.31,2.85a1.78,1.78,0,0,0,1.3.65h0a2.32,2.32,0,0,0,1.5-.73l4.28-4,1.82,1.94-4.22,3.95A4.82,4.82,0,0,1,52.81,270.88Zm16.75,7.59A3.28,3.28,0,0,1,66,279.59L65.51,284l-2.37-2,.45-3.75-1-.86-2.05,2.38-2-1.73,6.71-7.81,3.59,3.08a4.28,4.28,0,0,1,1.58,2.58A3.31,3.31,0,0,1,69.56,278.47ZM81.22,287l-.06-.25a3.32,3.32,0,0,0-1.33-2.18,2.48,2.48,0,0,0-2-.39,3,3,0,0,0-1.74,1.22,2.67,2.67,0,0,0,.52,3.83,3.33,3.33,0,0,0,2.6.47l.23,0,.43,2.39-.23.05a6.53,6.53,0,0,1-1.41.17,5.32,5.32,0,0,1-4.43-8.39,5.23,5.23,0,0,1,7.44-1.37,5.34,5.34,0,0,1,2.43,3.6l0,.23Zm11.7,14.6-2.34-1.26,1.87-3.47-3.06-1.65-1.87,3.46-2.33-1.26,4.89-9.06,2.34,1.26L90.57,293l3.06,1.65,1.85-3.41,2.33,1.26Zm9.71,3.79a2.51,2.51,0,0,1-2.31,1.82,4,4,0,0,1-1.44-.32l-.19-.08.29-1.36.26.09c.69.21,1.16.1,1.41-.36l-.8-.35,1.09-2.51,2.54,1.1Zm25.52,9-2.14-.56-2.76-6.66-1.47,5.55-2.54-.67,2.63-10,2.28.6,2.67,6.43,1.41-5.36,2.54.67Zm17-5-5.19-.78-.22,1.47,4.56.69-.36,2.39-4.57-.69-.23,1.54,5.26.8-.36,2.39L136.15,316l1.54-10.19,7.8,1.18Zm17.83,9-2.23-.06-1.88-5.94-2.19,5.83-2.23-.06L151.28,308l-.09-.27,2.85.08.05.19,1.64,5.92,2.13-5.92,0-.11,2.21.05V308l1.83,6.09,2-6,2.78.07Zm20.78-1.47-.32-2,4.07-6.67-4.86.79-.39-2.35,8.39-1.38.32,2L186.88,314l5-.82.38,2.36Zm16.19-3.09-2.69-10,7.61-2.06.64,2.34-5.07,1.37.39,1.44,4.46-1.21.63,2.33-4.46,1.21.41,1.5,5.13-1.39.63,2.34Zm21.88-7.15L220.18,305l-3.55,1.38,0,2.37-2.55,1,.35-11.27,2.16-.84,7.87,8.07Zm9.1-4-4.7-9.17,2.36-1.21,3.58,7L236.5,297l1.12,2.18Zm19.28-11.14-1.95-1.36-3.19,2.08.45,2.33-2.3,1.5-2-11.1,1.94-1.26,9.36,6.28Zm13.54-10.31-7-1.65,3.65,4.43-2,1.67-6.55-7.94,1.82-1.51,6.78,1.6-3.52-4.28,2-1.67,6.56,7.95Zm10.54-9.89-2.83,2.93-7.4-7.16,2.83-2.93a5.12,5.12,0,0,1,7.47-.36,5.05,5.05,0,0,1,1.6,3.66A5.62,5.62,0,0,1,274.27,271.32Zm8.13-9-2.12-1.73,1.74-2.15,2.13,1.74Zm12.14-16.71-8.87-5.26,4-6.79,2.08,1.24-2.68,4.51,1.28.76,2.36-4,2.08,1.23-2.36,4,1.34.79,2.72-4.58,2.08,1.24Zm9.35-17a6.45,6.45,0,0,1-3.35,3.18l-.23.09-1-2.26.23-.1a4.21,4.21,0,0,0,2.23-2c.12-.25.46-1.07-.1-1.35-.32-.15-.6-.15-1.71,1.16-1.25,1.48-2.45,2.63-4.41,1.68-1.72-.84-2.25-2.78-1.3-4.72a5.89,5.89,0,0,1,2.83-2.85l.21-.1,1.21,2.14-.22.12a4.31,4.31,0,0,0-1.88,1.76c-.27.55-.23,1,.1,1.17s.63.13,1.81-1.26c1.33-1.55,2.57-2.42,4.3-1.57S304.91,226.45,303.89,228.55Zm5-12.45-7.36-2.61-1,2.81-2.34-.83,2.88-8.12,2.35.83-1,2.81,7.36,2.61Zm6.56-23.57L308,191.11l.09,1.69-2.31.14-.33-3.2.33-1.73L315.94,190Zm2.21-13.9a5,5,0,0,1-1.54,3.24L316,182l-1.9-1.61.19-.19a2.9,2.9,0,0,0,1-1.9,1.67,1.67,0,0,0-1.27-1.77,3.4,3.4,0,0,1,.22,1.67c-.22,2.3-1.67,3.6-3.77,3.39a4.15,4.15,0,0,1-1.86-7.2,5.17,5.17,0,0,1,4-.85c3.44.34,5.41,2.28,5.13,5.06Z" style="fill: #40a14c"/>
        <path d="M266.68,52.82a.65.65,0,0,0,.62-.22l0,0a.65.65,0,0,0,.18-.58,1.59,1.59,0,0,0-.52-.77L265.6,50l-1.07,1.16,1.28,1.18A2,2,0,0,0,266.68,52.82Z" style="fill: #40a14c"/>
        <path d="M63.37,48.36l0,0a.6.6,0,0,0-.55-.23,1.59,1.59,0,0,0-.82.44l-1.41,1.24,1,1.18,1.3-1.15C63.89,49,63.5,48.51,63.37,48.36Z" style="fill: #40a14c"/>
        <polygon points="216.71 301.31 216.67 303.76 218.4 303.09 216.71 301.31" style="fill: #40a14c"/>
        <path d="M272.45,265.8a2.7,2.7,0,0,0-1.89-.82h0a2.64,2.64,0,0,0-1.9.88l-1,1,3.89,3.76,1-1a2.54,2.54,0,0,0,0-3.8Z" style="fill: #40a14c"/>
        <polygon points="246.11 288.68 244.1 287.29 244.56 289.69 246.11 288.68" style="fill: #40a14c"/>
        <path d="M66,52.39a1.74,1.74,0,0,0,.59-.82.65.65,0,0,0-.17-.64l.17-.19-.19.17c-.13-.15-.54-.61-1.55.29l-1.67,1.48,1.1,1.24Z" style="fill: #40a14c"/>
        <path d="M263.55,55.57c.93.87,1.35.42,1.48.27l.21.15-.19-.17c.14-.14.56-.59-.43-1.51L263,52.79,261.85,54Z" style="fill: #40a14c"/>
        <polygon points="77.48 40.53 75.41 39.22 75.96 41.61 77.48 40.53" style="fill: #40a14c"/>
      </g>
    </g>
  </g>
</svg>
