<svg xmlns="http://www.w3.org/2000/svg" width="202" height="52" viewBox="0 0 202 52">
  <g id="Layer_2" data-name="Layer 2">
    <g id="Layer_1-2" data-name="Layer 1">
      <g>
        <rect x="1" y="1" width="200" height="50" style="fill: none;stroke: #ab00b0;stroke-miterlimit: 10;stroke-width: 2px"/>
        <g>
          <path d="M61,17.45h2.48v14.2H61Z" style="fill: #ab00b0"/>
          <path d="M75.35,26.69a4.83,4.83,0,0,1-5,5.18,4.71,4.71,0,0,1-4.88-5,4.81,4.81,0,0,1,5-5.16A4.67,4.67,0,0,1,75.35,26.69Zm-7.34.1c0,1.88.92,3.3,2.42,3.3s2.38-1.38,2.38-3.34c0-1.52-.68-3.26-2.36-3.26S68,25.17,68,26.79Z" style="fill: #ab00b0"/>
          <path d="M77.37,24.81c0-1.12,0-2.06-.08-2.9h2.16l.12,1.46h.06a3.51,3.51,0,0,1,3.1-1.68c1.7,0,3.46,1.1,3.46,4.18v5.78H83.73v-5.5c0-1.4-.52-2.46-1.86-2.46A2.06,2.06,0,0,0,80,25.13a2.51,2.51,0,0,0-.1.8v5.72H77.37Z" style="fill: #ab00b0"/>
          <path d="M97.71,21.91c0,.66-.08,1.46-.08,2.8v5.52c0,2-.42,3.5-1.44,4.42a5.6,5.6,0,0,1-3.76,1.18,6.89,6.89,0,0,1-3.4-.78l.54-1.86a5.88,5.88,0,0,0,2.84.74c1.6,0,2.8-.84,2.8-2.94v-.84h0a3.29,3.29,0,0,1-2.84,1.44c-2.42,0-4.14-2-4.14-4.76,0-3.2,2.08-5.14,4.42-5.14a3.07,3.07,0,0,1,2.82,1.52h0l.1-1.3Zm-2.54,3.9a2.39,2.39,0,0,0-.08-.66,2,2,0,0,0-2-1.58c-1.38,0-2.4,1.2-2.4,3.18,0,1.66.84,3,2.38,3a2.1,2.1,0,0,0,2-1.48,4.24,4.24,0,0,0,.1-.88Z" style="fill: #ab00b0"/>
          <path d="M104.41,17.45h2.48v14.2h-2.48Z" style="fill: #ab00b0"/>
          <path d="M118.81,26.69a4.83,4.83,0,0,1-5,5.18,4.71,4.71,0,0,1-4.88-5,4.81,4.81,0,0,1,5-5.16A4.67,4.67,0,0,1,118.81,26.69Zm-7.34.1c0,1.88.92,3.3,2.42,3.3s2.38-1.38,2.38-3.34c0-1.52-.68-3.26-2.36-3.26S111.47,25.17,111.47,26.79Z" style="fill: #ab00b0"/>
          <path d="M129.73,21.91c0,.66-.08,1.46-.08,2.8v5.52c0,2-.42,3.5-1.44,4.42a5.6,5.6,0,0,1-3.76,1.18,6.89,6.89,0,0,1-3.4-.78l.54-1.86a5.88,5.88,0,0,0,2.84.74c1.6,0,2.8-.84,2.8-2.94v-.84h0a3.29,3.29,0,0,1-2.84,1.44c-2.42,0-4.14-2-4.14-4.76,0-3.2,2.08-5.14,4.42-5.14a3.07,3.07,0,0,1,2.82,1.52h0l.1-1.3Zm-2.54,3.9a2.39,2.39,0,0,0-.08-.66,2,2,0,0,0-2-1.58c-1.38,0-2.4,1.2-2.4,3.18,0,1.66.84,3,2.38,3a2.1,2.1,0,0,0,2-1.48,4.24,4.24,0,0,0,.1-.88Z" style="fill: #ab00b0"/>
          <path d="M141.55,26.69a4.83,4.83,0,0,1-5,5.18,4.71,4.71,0,0,1-4.88-5,4.81,4.81,0,0,1,5-5.16A4.67,4.67,0,0,1,141.55,26.69Zm-7.34.1c0,1.88.92,3.3,2.42,3.3S139,28.71,139,26.75c0-1.52-.68-3.26-2.36-3.26S134.21,25.17,134.21,26.79Z" style="fill: #ab00b0"/>
        </g>
      </g>
    </g>
  </g>
</svg>
