<svg xmlns="http://www.w3.org/2000/svg" width="78.29" height="126.36" viewBox="0 0 78.29 126.36">
  <g id="Layer_2" data-name="Layer 2">
    <g id="Layer_1-2" data-name="Layer 1">
      <g>
        <rect x="-23.03" y="25.03" width="124.36" height="76.29" transform="translate(102.33 24.03) rotate(90)" style="fill: none;stroke: #ab00b0;stroke-miterlimit: 10;stroke-width: 2px"/>
        <g>
          <path d="M25.42,44.18V47h2.34V48.8H25.42v4.3c0,1.18.32,1.8,1.26,1.8a3.63,3.63,0,0,0,1-.12l0,1.88a5.36,5.36,0,0,1-1.78.24,2.85,2.85,0,0,1-2.12-.8A3.88,3.88,0,0,1,23,53.38V48.8h-1.4V47H23v-2.2Z" style="fill: #ab00b0"/>
          <path d="M35.1,56.7,35,55.62h-.07A3.6,3.6,0,0,1,32,56.92,2.89,2.89,0,0,1,28.94,54c0-2.46,2.18-3.7,5.78-3.68v-.16c0-.64-.26-1.7-2-1.7a5.16,5.16,0,0,0-2.62.72l-.48-1.6a7,7,0,0,1,3.52-.86c3.13,0,4,2,4,4.1v3.52a15.62,15.62,0,0,0,.14,2.34Zm-.31-4.76c-1.75,0-3.41.34-3.41,1.82a1.29,1.29,0,0,0,1.4,1.4,2,2,0,0,0,1.92-1.34,1.79,1.79,0,0,0,.09-.54Z" style="fill: #ab00b0"/>
          <path d="M39.78,42.5h2.48V56.7H39.78Z" style="fill: #ab00b0"/>
          <path d="M44.92,42.5H47.4V56.7H44.92Z" style="fill: #ab00b0"/>
          <path d="M22.6,66.5h2.48V80.7H22.6Z" style="fill: #ab00b0"/>
          <path d="M37,75.74a4.83,4.83,0,0,1-5,5.18,4.71,4.71,0,0,1-4.88-5,4.81,4.81,0,0,1,5-5.16A4.67,4.67,0,0,1,37,75.74Zm-7.34.1c0,1.88.92,3.3,2.42,3.3s2.38-1.38,2.38-3.34c0-1.52-.68-3.26-2.36-3.26S29.66,74.22,29.66,75.84Z" style="fill: #ab00b0"/>
          <path d="M47.93,71c0,.66-.08,1.46-.08,2.8v5.52c0,2-.42,3.5-1.44,4.42a5.65,5.65,0,0,1-3.77,1.18,6.89,6.89,0,0,1-3.4-.78l.54-1.86a5.88,5.88,0,0,0,2.84.74c1.6,0,2.8-.84,2.8-2.94V79.2h0a3.28,3.28,0,0,1-2.84,1.44c-2.42,0-4.14-2-4.14-4.76,0-3.2,2.08-5.14,4.42-5.14a3.09,3.09,0,0,1,2.83,1.52h0l.1-1.3Zm-2.55,3.9a2.17,2.17,0,0,0-2.08-2.24c-1.38,0-2.4,1.2-2.4,3.18,0,1.66.84,3,2.38,3a2.12,2.12,0,0,0,2-1.48,5,5,0,0,0,.09-.88Z" style="fill: #ab00b0"/>
          <path d="M59.75,75.74a4.83,4.83,0,0,1-5,5.18,4.71,4.71,0,0,1-4.88-5,4.81,4.81,0,0,1,5-5.16A4.68,4.68,0,0,1,59.75,75.74Zm-7.35.1c0,1.88.92,3.3,2.42,3.3s2.38-1.38,2.38-3.34c0-1.52-.68-3.26-2.36-3.26S52.4,74.22,52.4,75.84Z" style="fill: #ab00b0"/>
        </g>
      </g>
    </g>
  </g>
</svg>
