<svg xmlns="http://www.w3.org/2000/svg" width="77.35" height="77.35" viewBox="0 0 77.35 77.35">
  <g id="Layer_2" data-name="Layer 2">
    <g id="Layer_1-2" data-name="Layer 1">
      <g>
        <g>
          <path d="M22.82,28.67c.06,1.76,1.44,2.52,3,2.52a7.32,7.32,0,0,0,2.7-.44l.36,1.7a9.17,9.17,0,0,1-3.4.6c-3.16,0-5-1.94-5-4.92,0-2.7,1.64-5.24,4.76-5.24s4.2,2.6,4.2,4.74a6.05,6.05,0,0,1-.08,1ZM27.1,27a2.09,2.09,0,0,0-2-2.38A2.41,2.41,0,0,0,22.82,27Z" style="fill: #ab00b0"/>
          <path d="M37.92,31.51h0a3.37,3.37,0,0,1-3,1.56c-2.18,0-4.08-1.9-4.08-4.94,0-3.56,2.28-5.24,4.36-5.24A3.06,3.06,0,0,1,38,24.39l0,0,.06-1.3h2.38c0,.88-.08,1.8-.08,2.82V36.81H37.92Zm0-4.38a2.91,2.91,0,0,0-.06-.6,2.15,2.15,0,0,0-2.1-1.7c-1.58,0-2.48,1.34-2.48,3.18s.86,3.12,2.42,3.12a2.16,2.16,0,0,0,2.1-1.62,2.51,2.51,0,0,0,.12-.76Z" style="fill: #ab00b0"/>
          <path d="M43,18.65H45.5v14.2H43Z" style="fill: #ab00b0"/>
          <path d="M21.08,42.65h2.48v14.2H21.08Z" style="fill: #ab00b0"/>
          <path d="M35.48,51.89a4.83,4.83,0,0,1-5,5.18,4.71,4.71,0,0,1-4.88-5,4.81,4.81,0,0,1,5-5.16A4.67,4.67,0,0,1,35.48,51.89Zm-7.34.1c0,1.88.92,3.3,2.42,3.3s2.38-1.38,2.38-3.34c0-1.52-.68-3.26-2.36-3.26S28.14,50.37,28.14,52Z" style="fill: #ab00b0"/>
          <path d="M46.4,47.11c0,.66-.08,1.46-.08,2.8v5.52c0,2-.42,3.5-1.44,4.42A5.6,5.6,0,0,1,41.12,61a6.89,6.89,0,0,1-3.4-.78l.54-1.86a5.88,5.88,0,0,0,2.84.74c1.6,0,2.8-.84,2.8-2.94v-.84h0A3.29,3.29,0,0,1,41,56.79c-2.42,0-4.14-2-4.14-4.76,0-3.2,2.08-5.14,4.42-5.14a3.07,3.07,0,0,1,2.82,1.52h0l.1-1.3ZM43.86,51a2.39,2.39,0,0,0-.08-.66,2,2,0,0,0-2-1.58c-1.38,0-2.4,1.2-2.4,3.18,0,1.66.84,3,2.38,3a2.1,2.1,0,0,0,2-1.48,4.24,4.24,0,0,0,.1-.88Z" style="fill: #ab00b0"/>
          <path d="M58.22,51.89a4.83,4.83,0,0,1-5,5.18,4.71,4.71,0,0,1-4.88-5,4.81,4.81,0,0,1,5-5.16A4.67,4.67,0,0,1,58.22,51.89Zm-7.34.1c0,1.88.92,3.3,2.42,3.3s2.38-1.38,2.38-3.34c0-1.52-.68-3.26-2.36-3.26S50.88,50.37,50.88,52Z" style="fill: #ab00b0"/>
        </g>
        <rect x="1" y="1" width="75.35" height="75.35" rx="37.67" style="fill: none;stroke: #ab00b0;stroke-miterlimit: 10;stroke-width: 2px"/>
      </g>
    </g>
  </g>
</svg>
